<?xml version="1.0" encoding="UTF-8" standalone="no"?>
<!DOCTYPE svg PUBLIC "-//W3C//DTD SVG 1.1//EN" "http://www.w3.org/Graphics/SVG/1.1/DTD/svg11.dtd">
<svg version="1.1" xmlns="http://www.w3.org/2000/svg" xmlns:xlink="http://www.w3.org/1999/xlink" preserveAspectRatio="xMidYMid meet" viewBox="0 0 342 342" width="342" height="342"><defs><path d="M109.87 78.89L110.17 78.91L110.47 78.95L110.77 79L111.07 79.06L111.36 79.13L111.66 79.22L111.95 79.32L112.24 79.43L112.53 79.55L112.82 79.68L112.89 79.72L113.08 79.81L113.36 79.95L113.74 80.13L114.23 80.35L114.8 80.62L115.47 80.92L116.23 81.25L117.07 81.62L118 82.02L119.01 82.44L120.1 82.89L121.26 83.36L122.49 83.85L123.8 84.35L125.17 84.87L126.6 85.4L128.1 85.93L129.65 86.47L131.26 87.02L132.92 87.56L134.63 88.1L136.39 88.63L138.2 89.16L140.04 89.67L141.93 90.17L143.85 90.65L145.8 91.12L147.79 91.56L149.8 91.98L151.83 92.37L153.89 92.74L155.97 93.07L158.07 93.36L160.18 93.62L162.29 93.83L164.42 94L166.56 94.13L168.69 94.21L170.83 94.23L172.96 94.21L175.1 94.13L177.23 94L179.36 93.83L181.48 93.62L183.59 93.36L185.68 93.07L187.76 92.74L189.82 92.37L191.86 91.98L193.87 91.56L195.85 91.12L197.81 90.65L199.73 90.17L201.61 89.67L203.46 89.16L205.26 88.63L207.02 88.1L208.73 87.56L210.4 87.02L212.01 86.47L213.56 85.93L215.05 85.4L216.49 84.87L217.86 84.35L219.16 83.85L220.4 83.36L221.56 82.89L222.64 82.44L223.65 82.02L224.58 81.62L225.42 81.25L226.18 80.92L226.85 80.62L227.43 80.35L227.91 80.13L228.3 79.95L228.58 79.81L228.76 79.72L228.84 79.68L229.12 79.55L229.41 79.43L229.7 79.32L230 79.22L230.29 79.13L230.59 79.06L230.89 79L231.18 78.95L231.48 78.91L231.78 78.89L232.08 78.88L232.38 78.88L232.67 78.89L232.97 78.91L233.26 78.94L233.56 78.99L233.85 79.04L234.13 79.11L234.42 79.18L234.7 79.27L234.98 79.37L235.25 79.48L235.52 79.6L235.79 79.73L236.05 79.87L236.3 80.02L236.55 80.18L236.8 80.35L237.03 80.53L237.26 80.72L237.49 80.92L237.7 81.13L237.91 81.34L238.11 81.57L238.31 81.81L238.49 82.05L238.67 82.31L238.83 82.57L238.99 82.84L239.14 83.12L269.86 144.56L269.97 144.78L270.07 145.01L270.16 145.23L270.24 145.46L270.32 145.69L270.39 145.93L270.45 146.16L270.5 146.39L270.55 146.63L270.59 146.86L270.62 147.1L270.64 147.34L270.66 147.57L270.67 147.81L270.67 148.05L270.67 148.29L270.65 148.52L270.63 148.76L270.61 148.99L270.57 149.23L270.53 149.46L270.48 149.69L270.43 149.92L270.36 150.15L270.29 150.37L270.22 150.6L270.13 150.82L270.04 151.04L269.94 151.26L269.84 151.47L269.73 151.68L269.61 151.89L269.48 152.1L269.35 152.3L269.21 152.5L269.07 152.69L268.92 152.88L268.76 153.07L268.59 153.25L268.42 153.43L244.45 177.39L245.24 177.98L246.04 178.6L246.87 179.25L247.7 179.93L248.55 180.64L249.41 181.38L250.28 182.15L251.16 182.95L252.04 183.78L252.92 184.64L253.8 185.53L254.69 186.45L255.56 187.41L256.44 188.39L257.3 189.4L258.16 190.45L259 191.52L259.83 192.63L260.65 193.76L261.45 194.93L262.23 196.13L262.98 197.36L263.72 198.62L264.43 199.91L265.11 201.23L265.76 202.58L266.38 203.96L266.96 205.38L267.52 206.82L268.03 208.3L268.5 209.81L268.94 211.35L269.33 212.92L269.67 214.52L269.97 216.16L270.21 217.82L270.41 219.52L270.55 221.25L270.64 223.01L270.67 224.8L270.6 227.48L270.41 230.21L270.08 232.97L269.63 235.77L269.05 238.6L268.34 241.44L267.5 244.31L266.54 247.18L265.45 250.06L264.23 252.94L262.88 255.81L261.41 258.66L259.82 261.5L258.1 264.31L256.25 267.09L254.29 269.83L252.19 272.53L249.98 275.19L247.64 277.78L245.18 280.32L242.59 282.79L239.89 285.19L237.06 287.51L234.11 289.74L231.05 291.89L227.86 293.94L224.55 295.88L221.12 297.72L217.58 299.45L213.91 301.06L210.13 302.54L206.23 303.89L202.21 305.11L198.07 306.18L193.82 307.1L189.45 307.87L184.97 308.48L180.37 308.92L175.66 309.19L170.83 309.28L166 309.19L161.28 308.92L156.69 308.48L152.2 307.87L147.83 307.1L143.58 306.18L139.45 305.11L135.43 303.89L131.53 302.54L127.74 301.06L124.08 299.45L120.53 297.72L117.1 295.88L113.8 293.94L110.61 291.89L107.54 289.74L104.59 287.51L101.77 285.19L99.06 282.79L96.48 280.32L94.02 277.78L91.68 275.19L89.46 272.53L87.37 269.83L85.4 267.09L83.56 264.31L81.84 261.5L80.24 258.66L78.77 255.81L77.43 252.94L76.21 250.06L75.12 247.18L74.15 244.31L73.32 241.44L72.61 238.6L72.02 235.77L71.57 232.97L71.25 230.21L71.05 227.48L70.99 224.8L71.02 223.01L71.1 221.25L71.25 219.52L71.44 217.82L71.69 216.16L71.99 214.52L72.33 212.92L72.72 211.35L73.15 209.81L73.63 208.3L74.14 206.82L74.69 205.38L75.28 203.96L75.9 202.58L76.55 201.23L77.23 199.91L77.94 198.62L78.67 197.36L79.43 196.13L80.21 194.93L81.01 193.76L81.82 192.63L82.65 191.52L83.5 190.45L84.35 189.4L85.22 188.39L86.09 187.41L86.97 186.45L87.85 185.53L88.73 184.64L89.62 183.78L90.5 182.95L91.37 182.15L92.24 181.38L93.1 180.64L93.95 179.93L94.79 179.25L95.61 178.6L96.42 177.98L97.21 177.39L73.24 153.43L73.06 153.25L72.9 153.07L72.74 152.88L72.59 152.69L72.44 152.5L72.3 152.3L72.17 152.1L72.05 151.89L71.93 151.68L71.82 151.47L71.71 151.26L71.61 151.04L71.52 150.82L71.44 150.6L71.36 150.37L71.29 150.15L71.23 149.92L71.17 149.69L71.12 149.46L71.08 149.23L71.05 148.99L71.02 148.76L71 148.52L70.99 148.29L70.98 148.05L70.99 147.81L71 147.57L71.01 147.34L71.04 147.1L71.07 146.86L71.11 146.63L71.15 146.39L71.21 146.16L71.27 145.93L71.34 145.69L71.41 145.46L71.5 145.23L71.59 145.01L71.69 144.78L71.8 144.56L102.52 83.12L102.66 82.84L102.82 82.57L102.99 82.31L103.16 82.05L103.35 81.81L103.54 81.57L103.74 81.34L103.95 81.13L104.17 80.92L104.39 80.72L104.62 80.53L104.86 80.35L105.1 80.18L105.35 80.02L105.61 79.87L105.87 79.73L106.13 79.6L106.4 79.48L106.68 79.37L106.95 79.27L107.24 79.18L107.52 79.11L107.81 79.04L108.1 78.99L108.39 78.94L108.69 78.91L108.98 78.89L109.28 78.88L109.58 78.88L109.87 78.89ZM226.94 97.32L225.98 97.7L224.99 98.1L223.96 98.5L222.89 98.91L221.78 99.33L220.63 99.75L219.45 100.18L218.23 100.61L216.98 101.04L215.7 101.48L214.38 101.91L213.03 102.35L211.66 102.78L210.26 103.21L208.82 103.63L207.37 104.05L205.88 104.46L204.38 104.86L202.85 105.26L201.3 105.64L199.72 106.02L198.13 106.38L196.52 106.73L194.89 107.06L193.25 107.38L191.59 107.68L189.91 107.97L188.22 108.23L186.52 108.48L184.81 108.7L183.09 108.9L181.36 109.08L179.62 109.23L177.87 109.36L176.12 109.47L174.36 109.54L172.6 109.58L170.84 109.6L169.07 109.58L167.31 109.54L165.56 109.46L163.81 109.36L162.06 109.23L160.32 109.08L158.59 108.9L156.87 108.7L155.15 108.47L153.45 108.23L151.76 107.96L150.09 107.68L148.43 107.38L146.78 107.06L145.15 106.73L143.54 106.38L141.95 106.01L140.38 105.64L138.83 105.26L137.3 104.86L135.79 104.46L134.31 104.05L132.85 103.63L131.42 103.2L130.01 102.78L128.64 102.34L127.29 101.91L125.98 101.48L124.69 101.04L123.44 100.61L122.23 100.18L121.04 99.75L119.9 99.33L118.79 98.91L117.72 98.5L116.68 98.1L115.69 97.7L114.74 97.32L113.83 96.95L112.97 96.58L88.02 146.48L114.84 173.28L114.96 173.41L115.09 173.55L115.21 173.69L115.33 173.83L115.44 173.97L115.55 174.11L115.66 174.26L115.76 174.41L115.86 174.56L115.96 174.71L116.05 174.87L116.14 175.03L116.22 175.19L116.3 175.35L116.38 175.51L116.45 175.67L116.52 175.84L116.59 176.01L116.65 176.18L116.7 176.35L116.76 176.52L116.81 176.69L116.85 176.86L116.89 177.04L116.93 177.22L116.96 177.39L116.99 177.57L117.02 177.75L117.04 177.93L117.05 178.11L117.06 178.29L117.07 178.47L117.08 178.65L117.07 178.83L117.07 179.02L117.06 179.2L117.05 179.38L117.03 179.56L117.01 179.75L116.98 179.93L116.95 180.11L116.91 180.29L116.87 180.47L116.83 180.65L116.78 180.82L116.73 181L116.67 181.17L116.61 181.34L116.55 181.51L116.48 181.68L116.41 181.85L116.33 182.01L116.25 182.17L116.17 182.33L116.08 182.49L115.99 182.65L115.9 182.8L115.8 182.95L115.7 183.1L115.6 183.25L115.49 183.39L115.38 183.53L115.26 183.67L115.15 183.81L115.03 183.94L114.9 184.07L114.77 184.2L114.64 184.33L114.51 184.45L114.37 184.57L114.24 184.68L114.09 184.8L113.95 184.91L113.8 185.01L113.65 185.12L113.5 185.22L113.34 185.31L113.18 185.41L113.02 185.49L112.86 185.58L112.79 185.62L112.63 185.7L112.38 185.84L112.05 186.02L111.64 186.26L111.16 186.54L110.61 186.88L110 187.26L109.33 187.7L108.61 188.18L107.83 188.71L107.02 189.29L106.16 189.92L105.27 190.6L104.36 191.33L103.41 192.11L102.45 192.93L101.48 193.8L100.49 194.72L99.51 195.69L98.52 196.7L97.54 197.76L96.56 198.87L95.61 200.03L94.67 201.23L93.76 202.48L92.88 203.78L92.03 205.12L91.22 206.51L90.46 207.94L89.74 209.43L89.08 210.95L88.48 212.52L87.95 214.14L87.48 215.81L87.09 217.52L86.77 219.27L86.54 221.07L86.4 222.91L86.35 224.8L86.4 226.65L86.54 228.56L86.78 230.55L87.11 232.59L87.53 234.69L88.06 236.83L88.68 239.02L89.41 241.24L90.23 243.49L91.16 245.77L92.19 248.06L93.32 250.36L94.55 252.66L95.89 254.97L97.34 257.26L98.9 259.54L100.56 261.8L102.33 264.04L104.21 266.24L106.21 268.4L108.31 270.51L110.53 272.58L112.86 274.59L115.31 276.53L117.87 278.4L120.55 280.2L123.34 281.92L126.26 283.54L129.29 285.08L132.45 286.51L135.72 287.83L139.12 289.05L142.64 290.14L146.29 291.1L150.06 291.94L153.96 292.64L157.99 293.19L162.14 293.59L166.42 293.84L170.83 293.92L175.24 293.84L179.53 293.59L183.68 293.19L187.71 292.64L191.6 291.94L195.37 291.1L199.02 290.14L202.54 289.05L205.94 287.83L209.22 286.51L212.37 285.08L215.41 283.54L218.32 281.92L221.12 280.2L223.8 278.4L226.36 276.53L228.81 274.59L231.14 272.58L233.36 270.51L235.46 268.4L237.45 266.24L239.33 264.04L241.11 261.8L242.77 259.54L244.32 257.26L245.77 254.97L247.11 252.66L248.35 250.36L249.48 248.06L250.51 245.77L251.43 243.49L252.26 241.24L252.98 239.02L253.61 236.83L254.13 234.69L254.56 232.59L254.89 230.55L255.13 228.56L255.27 226.65L255.31 224.8L255.26 222.91L255.12 221.07L254.89 219.27L254.58 217.52L254.18 215.81L253.72 214.14L253.18 212.53L252.58 210.95L251.92 209.43L251.21 207.95L250.45 206.51L249.64 205.12L248.79 203.78L247.91 202.48L247 201.23L246.06 200.03L245.1 198.87L244.13 197.76L243.15 196.7L242.16 195.69L241.17 194.72L240.19 193.8L239.21 192.93L238.25 192.11L237.31 191.33L236.39 190.6L235.5 189.93L234.65 189.3L233.83 188.71L233.06 188.18L232.34 187.7L231.67 187.26L231.05 186.88L230.5 186.54L230.02 186.26L229.61 186.02L229.28 185.84L229.03 185.7L228.87 185.62L228.81 185.58L228.64 185.49L228.48 185.41L228.32 185.31L228.17 185.22L228.01 185.12L227.86 185.01L227.72 184.91L227.57 184.8L227.43 184.68L227.29 184.57L227.15 184.45L227.02 184.33L226.89 184.2L226.76 184.07L226.64 183.94L226.52 183.81L226.4 183.67L226.29 183.53L226.18 183.39L226.07 183.25L225.96 183.1L225.86 182.95L225.77 182.8L225.67 182.65L225.58 182.49L225.49 182.33L225.41 182.17L225.33 182.01L225.26 181.85L225.18 181.68L225.12 181.51L225.05 181.34L224.99 181.17L224.94 181L224.88 180.82L224.84 180.65L224.79 180.47L224.75 180.29L224.72 180.11L224.68 179.93L224.67 179.81L224.65 179.68L224.64 179.55L224.64 179.42L224.63 179.29L224.64 179.16L224.64 179.02L224.65 178.88L224.66 178.74L224.67 178.6L224.69 178.46L224.72 178.31L224.74 178.16L224.77 178.01L224.81 177.85L224.84 177.7L224.88 177.54L224.93 177.38L224.98 177.22L225.03 177.05L225.08 176.88L225.14 176.71L225.21 176.54L225.27 176.37L225.34 176.19L225.42 176.01L225.49 175.83L225.57 175.65L225.66 175.47L225.75 175.28L225.84 175.09L225.93 174.9L226.03 174.7L226.14 174.51L226.24 174.31L226.35 174.11L226.47 173.9L226.58 173.7L226.71 173.49L226.83 173.28L253.65 146.48L228.71 96.58L227.84 96.95L226.94 97.32Z" id="e1unWsVQJO"></path><path d="M170.83 200.85C154.46 192.66 145.36 188.12 143.54 187.21C139.74 185.32 135.13 186.85 133.24 190.64C131.34 194.44 132.88 199.05 136.67 200.95C138.44 201.83 147.26 206.25 163.15 214.19C163.15 234.38 163.15 245.6 163.15 247.84C163.15 252.08 166.58 255.52 170.83 255.52C175.07 255.52 178.51 252.08 178.51 247.84C178.51 245.6 178.51 234.38 178.51 214.19C194.39 206.25 203.22 201.83 204.98 200.95C208.78 199.05 210.31 194.44 208.42 190.64C206.52 186.85 201.91 185.32 198.11 187.21C194.47 189.03 185.38 193.57 170.83 200.85Z" id="e15xVjYDgc"></path><path d="M214.48 133.03C211.57 134 197.02 138.85 170.83 147.58C144.64 138.85 130.09 134 127.18 133.03C123.16 131.69 118.8 133.86 117.47 137.89C117.2 138.69 117.11 139.51 117.11 140.31C117.1 140.31 117.07 140.31 117.07 140.31C117.07 140.41 117.1 140.5 117.1 140.6C117.11 140.88 117.14 141.15 117.19 141.42C117.77 153.61 127.79 163.36 140.12 163.36C145.44 163.36 150.44 161.56 154.48 158.32C155.87 158.79 167.02 162.5 168.41 162.97C169.2 163.23 170.02 163.36 170.84 163.36C171.66 163.36 172.48 163.23 173.26 162.97C174.66 162.5 185.8 158.79 187.2 158.32C191.23 161.56 196.23 163.36 201.56 163.36C213.88 163.36 223.9 153.61 224.49 141.42C224.53 141.15 224.56 140.88 224.57 140.6C224.57 140.5 224.6 140.41 224.6 140.31C224.6 140.31 224.57 140.31 224.57 140.31C224.55 139.51 224.46 138.69 224.19 137.89C222.86 133.86 218.5 131.69 214.48 133.03Z" id="a1BgXNyOrW"></path><path d="M176.18 2.83L178.82 2.88L181.44 2.96L184.04 3.06L186.6 3.18L189.15 3.32L191.66 3.48L194.14 3.67L196.6 3.87L199.02 4.1L201.42 4.34L203.78 4.61L206.1 4.89L208.4 5.2L210.66 5.52L212.88 5.87L215.06 6.23L217.21 6.61L219.32 7.02L221.39 7.44L223.42 7.88L225.4 8.33L227.35 8.81L229.25 9.3L231.11 9.82L232.92 10.35L234.68 10.89L236.4 11.46L238.07 12.04L239.69 12.64L241.26 13.25L242.78 13.88L244.25 14.53L245.67 15.2L247.03 15.88L248.34 16.57L249.59 17.29L250.78 18.01L251.92 18.76L253.37 19.79L254.8 20.94L256.22 22.19L257.63 23.56L259.03 25.02L260.42 26.59L261.8 28.26L263.16 30.03L264.52 31.89L265.86 33.84L267.19 35.88L268.52 38.01L269.82 40.22L271.12 42.52L272.41 44.9L273.68 47.35L274.94 49.89L276.19 52.49L277.43 55.16L278.66 57.91L279.87 60.72L281.07 63.59L282.26 66.52L283.44 69.51L284.6 72.56L285.76 75.67L286.9 78.82L288.02 82.02L289.14 85.27L290.24 88.57L291.33 91.9L292.41 95.28L293.47 98.69L294.52 102.14L295.56 105.62L296.59 109.13L297.6 112.67L298.6 116.23L299.59 119.82L300.56 123.42L301.41 123.25L302.26 123.1L303.09 122.96L303.91 122.83L304.72 122.73L305.52 122.63L306.31 122.56L307.09 122.5L307.86 122.46L308.62 122.44L309.37 122.43L310.1 122.44L310.83 122.46L311.55 122.51L312.25 122.57L312.94 122.64L313.63 122.73L314.3 122.84L314.96 122.96L315.61 123.11L316.25 123.26L316.88 123.44L317.49 123.63L318.1 123.84L318.69 124.06L319.28 124.3L319.85 124.56L320.41 124.84L320.96 125.13L321.5 125.43L322.03 125.76L322.54 126.1L323.05 126.46L323.54 126.83L324.02 127.23L324.5 127.63L324.95 128.06L325.4 128.5L325.84 128.96L326.27 129.43L327.39 130.86L328.37 132.37L329.23 133.97L329.96 135.65L330.58 137.41L331.07 139.23L331.46 141.12L331.75 143.06L331.94 145.05L332.03 147.09L332.04 149.16L331.96 151.26L331.81 153.39L331.59 155.53L331.3 157.69L330.94 159.86L330.54 162.02L330.08 164.18L329.58 166.32L329.03 168.45L328.46 170.55L327.85 172.62L327.22 174.65L326.57 176.64L325.91 178.58L325.24 180.47L324.57 182.29L323.9 184.04L323.23 185.72L322.59 187.32L321.96 188.83L321.35 190.25L320.77 191.57L320.23 192.79L319.73 193.89L319.27 194.87L318.86 195.73L318.51 196.47L318.22 197.06L318 197.51L317.33 197.18L317.95 200.39L318.56 203.57L319.16 206.71L319.75 209.83L320.32 212.91L320.88 215.96L321.43 218.97L321.96 221.94L322.48 224.88L322.99 227.76L323.49 230.61L323.97 233.4L324.44 236.15L324.9 238.85L325.34 241.5L325.77 244.09L326.19 246.63L326.6 249.1L326.99 251.52L327.37 253.88L327.73 256.17L328.08 258.4L328.42 260.56L328.74 262.66L329.05 264.68L329.35 266.63L329.63 268.5L329.9 270.3L330.16 272.02L330.4 273.65L330.62 275.21L330.84 276.68L331.04 278.07L331.22 279.36L331.39 280.57L331.55 281.69L331.69 282.71L331.82 283.64L331.94 284.47L332.04 285.2L332.06 285.41L332.08 285.61L332.1 285.82L332.1 286.03L332.11 286.23L332.1 286.44L332.1 286.64L332.08 286.85L332.06 287.05L332.04 287.25L332.01 287.45L331.98 287.65L331.94 287.85L331.89 288.05L331.84 288.24L331.78 288.44L331.72 288.63L331.66 288.82L331.59 289.01L331.51 289.2L331.43 289.38L331.35 289.57L331.26 289.75L331.16 289.93L331.06 290.1L330.96 290.28L330.85 290.45L330.74 290.61L330.62 290.78L330.5 290.94L330.37 291.1L330.24 291.26L330.1 291.41L329.96 291.56L329.82 291.7L329.67 291.85L329.52 291.99L329.36 292.12L329.2 292.25L329.04 292.38L328.73 292.61L328.21 292.99L327.46 293.52L326.5 294.19L325.33 294.99L323.96 295.91L322.37 296.94L320.58 298.08L318.58 299.32L316.39 300.64L314 302.05L311.42 303.53L308.64 305.07L305.68 306.66L302.53 308.3L299.2 309.98L295.68 311.69L291.99 313.43L288.12 315.17L284.08 316.92L279.86 318.67L275.48 320.4L270.94 322.11L266.23 323.8L261.35 325.45L256.33 327.05L251.14 328.6L245.81 330.08L240.32 331.5L234.69 332.83L228.91 334.08L222.99 335.23L216.93 336.28L210.74 337.22L204.41 338.03L197.94 338.72L191.35 339.27L184.63 339.67L177.79 339.92L170.83 340L163.86 339.92L157.02 339.67L150.3 339.27L143.71 338.72L137.25 338.03L130.92 337.22L124.72 336.28L118.66 335.23L112.74 334.08L106.97 332.83L101.33 331.5L95.85 330.08L90.51 328.6L85.33 327.05L80.3 325.45L75.43 323.8L70.72 322.11L66.17 320.4L61.79 318.67L57.58 316.92L53.54 315.17L49.67 313.43L45.98 311.69L42.46 309.98L39.13 308.3L35.98 306.66L33.01 305.07L30.24 303.53L27.66 302.05L25.27 300.64L23.07 299.32L21.08 298.08L19.29 296.94L17.7 295.91L16.32 294.99L15.15 294.19L14.19 293.52L13.45 292.99L12.93 292.61L12.62 292.38L12.45 292.25L12.29 292.12L12.14 291.99L11.98 291.85L11.84 291.7L11.69 291.56L11.55 291.41L11.42 291.26L11.29 291.1L11.16 290.94L11.04 290.78L10.92 290.61L10.81 290.45L10.7 290.28L10.59 290.1L10.49 289.93L10.4 289.75L10.31 289.57L10.22 289.38L10.14 289.2L10.07 289.01L10 288.82L9.93 288.63L9.87 288.44L9.82 288.24L9.77 288.05L9.72 287.85L9.68 287.65L9.65 287.45L9.62 287.25L9.59 287.05L9.57 286.85L9.56 286.64L9.55 286.44L9.55 286.23L9.55 286.03L9.56 285.82L9.57 285.61L9.59 285.41L9.62 285.2L9.72 284.47L9.83 283.64L9.96 282.71L10.1 281.69L10.26 280.57L10.43 279.36L10.62 278.07L10.82 276.68L11.03 275.21L11.26 273.65L11.5 272.02L11.75 270.3L12.02 268.5L12.31 266.63L12.6 264.68L12.91 262.66L13.24 260.57L13.57 258.4L13.93 256.18L14.29 253.88L14.67 251.53L15.06 249.11L15.46 246.63L15.88 244.09L16.31 241.5L16.76 238.85L17.21 236.16L17.68 233.41L18.17 230.61L18.66 227.77L19.17 224.88L19.69 221.95L20.23 218.97L20.77 215.96L21.33 212.92L21.91 209.83L22.49 206.72L23.09 203.57L23.7 200.39L24.32 197.18L23.66 197.51L23.43 197.06L23.14 196.47L22.79 195.73L22.39 194.87L21.93 193.89L21.43 192.79L20.88 191.57L20.31 190.25L19.7 188.83L19.07 187.32L18.42 185.72L17.76 184.04L17.09 182.29L16.42 180.47L15.75 178.58L15.08 176.64L14.44 174.65L13.8 172.62L13.2 170.55L12.62 168.45L12.08 166.32L11.58 164.18L11.12 162.02L10.71 159.86L10.36 157.69L10.07 155.53L9.85 153.39L9.69 151.26L9.62 149.16L9.62 147.09L9.72 145.05L9.91 143.06L10.19 141.12L10.58 139.23L11.08 137.41L11.69 135.65L12.42 133.97L13.28 132.37L14.27 130.86L15.39 129.43L15.81 128.96L16.25 128.5L16.7 128.06L17.16 127.63L17.63 127.23L18.11 126.83L18.61 126.46L19.11 126.1L19.63 125.76L20.16 125.43L20.7 125.13L21.25 124.84L21.81 124.56L22.38 124.3L22.96 124.06L23.56 123.84L24.16 123.63L24.78 123.44L25.41 123.26L26.05 123.11L26.7 122.96L27.36 122.84L28.03 122.73L28.71 122.64L29.41 122.57L30.11 122.51L30.83 122.46L31.55 122.44L32.29 122.43L33.04 122.44L33.8 122.46L34.56 122.5L35.34 122.56L36.13 122.63L36.94 122.73L37.75 122.83L38.57 122.96L39.4 123.1L40.24 123.25L41.1 123.42L42.07 119.82L43.06 116.23L44.06 112.67L45.07 109.13L46.09 105.62L47.13 102.14L48.18 98.69L49.25 95.28L50.32 91.9L51.41 88.57L52.52 85.27L53.63 82.02L54.76 78.82L55.9 75.67L57.05 72.56L58.22 69.51L59.39 66.52L60.58 63.59L61.79 60.72L63 57.91L64.23 55.16L65.46 52.49L66.71 49.89L67.97 47.35L69.25 44.9L70.53 42.52L71.83 40.22L73.14 38.01L74.46 35.88L75.79 33.84L77.14 31.89L78.49 30.03L79.86 28.26L81.23 26.59L82.62 25.02L84.02 23.56L85.43 22.19L86.86 20.94L88.29 19.79L89.73 18.76L90.87 18.01L92.07 17.29L93.32 16.57L94.63 15.88L95.99 15.2L97.4 14.53L98.87 13.88L100.39 13.25L101.96 12.64L103.58 12.04L105.25 11.46L106.97 10.89L108.73 10.35L110.55 9.82L112.4 9.3L114.3 8.81L116.25 8.33L118.23 7.88L120.26 7.44L122.33 7.02L124.44 6.61L126.59 6.23L128.77 5.87L130.99 5.52L133.25 5.2L135.55 4.89L137.87 4.61L140.24 4.34L142.63 4.1L145.05 3.87L147.51 3.67L149.99 3.48L152.51 3.32L155.05 3.18L157.62 3.06L160.21 2.96L162.83 2.88L165.47 2.83L168.14 2.79L170.83 2.78L173.52 2.79L176.18 2.83ZM166.05 18.18L163.68 18.23L161.33 18.3L159 18.38L156.69 18.49L154.4 18.61L152.13 18.75L149.88 18.91L147.66 19.09L145.47 19.28L143.3 19.49L141.16 19.72L139.04 19.96L136.96 20.22L134.91 20.5L132.89 20.8L130.91 21.11L128.96 21.43L127.05 21.77L125.18 22.13L123.34 22.5L121.55 22.88L119.79 23.28L118.08 23.7L116.41 24.13L114.79 24.57L113.22 25.02L111.69 25.49L110.21 25.98L108.77 26.47L107.39 26.98L106.07 27.5L104.79 28.03L103.57 28.58L102.41 29.14L101.3 29.7L100.25 30.29L99.26 30.88L98.33 31.48L95.78 33.46L93.25 35.95L90.74 38.91L88.25 42.32L85.78 46.17L83.35 50.42L80.93 55.07L78.55 60.08L76.19 65.43L73.87 71.11L71.57 77.08L69.32 83.34L67.09 89.85L64.9 96.6L62.75 103.56L60.64 110.71L58.57 118.03L56.55 125.5L54.56 133.09L52.62 140.78L50.73 148.56L48.88 156.39L47.09 164.27L45.34 172.16L43.65 180.04L42.01 187.89L40.43 195.7L38.9 203.43L37.43 211.07L36.02 218.59L34.67 225.97L33.38 233.19L32.16 240.24L31 247.08L29.91 253.69L28.88 260.05L27.92 266.15L27.04 271.95L26.23 277.44L25.49 282.6L26.63 283.35L27.93 284.18L29.38 285.09L30.98 286.06L32.72 287.11L34.61 288.21L36.63 289.37L38.8 290.59L41.11 291.84L43.55 293.14L46.12 294.47L48.83 295.83L51.67 297.22L54.64 298.62L57.73 300.04L60.95 301.46L64.29 302.89L67.75 304.32L71.34 305.74L75.04 307.15L78.85 308.54L82.78 309.91L86.82 311.25L90.97 312.55L95.23 313.82L99.6 315.04L104.07 316.22L108.64 317.34L113.31 318.4L118.09 319.39L122.95 320.32L127.92 321.17L132.98 321.94L138.12 322.63L143.36 323.22L148.69 323.72L154.1 324.11L159.59 324.4L165.17 324.58L170.83 324.64L176.48 324.58L182.06 324.4L187.56 324.11L192.97 323.72L198.29 323.22L203.53 322.63L208.68 321.94L213.74 321.17L218.7 320.32L223.57 319.39L228.34 318.4L233.01 317.34L237.59 316.22L242.06 315.04L246.42 313.82L250.68 312.55L254.83 311.25L258.87 309.91L262.8 308.54L266.62 307.15L270.32 305.74L273.9 304.32L277.36 302.89L280.71 301.46L283.93 300.04L287.02 298.62L289.99 297.22L292.82 295.83L295.53 294.47L298.11 293.14L300.55 291.84L302.85 290.59L305.02 289.37L307.05 288.21L308.93 287.11L310.68 286.06L312.27 285.09L313.72 284.18L315.02 283.35L316.17 282.6L315.43 277.44L314.62 271.95L313.73 266.15L312.77 260.05L311.75 253.69L310.66 247.07L309.5 240.24L308.27 233.19L306.98 225.97L305.63 218.59L304.22 211.07L302.75 203.43L301.22 195.7L299.64 187.89L298 180.04L296.31 172.16L294.56 164.27L292.77 156.39L290.92 148.56L289.03 140.78L287.09 133.09L285.11 125.49L283.08 118.03L281.01 110.71L278.9 103.56L276.75 96.6L274.56 89.85L272.34 83.34L270.08 77.08L267.79 71.1L265.46 65.43L263.11 60.07L260.72 55.06L258.31 50.42L255.87 46.16L253.41 42.32L250.92 38.91L248.41 35.95L245.88 33.46L243.33 31.48L242.4 30.88L241.41 30.29L240.36 29.7L239.25 29.14L238.08 28.58L236.86 28.03L235.59 27.5L234.26 26.98L232.88 26.47L231.45 25.98L229.97 25.49L228.44 25.02L226.86 24.57L225.24 24.13L223.57 23.7L221.86 23.28L220.11 22.88L218.31 22.5L216.48 22.13L214.6 21.77L212.69 21.43L210.74 21.11L208.76 20.8L206.74 20.5L204.69 20.22L202.61 19.96L200.5 19.72L198.36 19.49L196.19 19.28L193.99 19.09L191.77 18.91L189.52 18.75L187.26 18.61L184.96 18.49L182.65 18.38L180.32 18.3L177.97 18.23L175.61 18.18L173.22 18.15L170.83 18.14L168.43 18.15L166.05 18.18ZM307.24 137.84L306.33 137.95L305.37 138.09L304.38 138.27L304.93 140.49L305.47 142.72L306.01 144.94L306.54 147.17L307.07 149.4L307.6 151.63L308.12 153.86L308.63 156.09L309.14 158.32L309.64 160.54L310.14 162.76L310.63 164.99L311.12 167.2L311.61 169.42L312.08 171.63L312.98 168.8L313.8 166.01L314.53 163.27L315.18 160.6L315.72 158L316.16 155.5L316.5 153.11L316.72 150.83L316.82 148.69L316.8 146.7L316.65 144.88L316.37 143.23L315.95 141.77L315.38 140.52L314.66 139.5L314.32 139.15L313.92 138.84L313.47 138.57L312.97 138.34L312.42 138.15L311.82 137.99L311.17 137.87L310.47 137.79L309.73 137.75L308.94 137.74L308.11 137.77L307.24 137.84ZM31.18 137.8L30.48 137.88L29.84 137.99L29.23 138.15L28.68 138.34L28.18 138.58L27.73 138.84L27.33 139.15L26.99 139.5L26.28 140.52L25.71 141.77L25.29 143.23L25 144.88L24.86 146.7L24.84 148.69L24.94 150.83L25.16 153.11L25.49 155.5L25.94 158L26.48 160.6L27.12 163.27L27.85 166.01L28.67 168.8L29.57 171.63L30.05 169.42L30.53 167.2L31.02 164.99L31.51 162.76L32.01 160.54L32.52 158.32L33.02 156.09L33.54 153.86L34.06 151.63L34.58 149.4L35.11 147.17L35.64 144.94L36.18 142.72L36.73 140.49L37.28 138.27L36.28 138.09L35.33 137.95L34.41 137.84L33.54 137.78L32.71 137.74L31.92 137.75L31.18 137.8Z" id="bfF7CjXDH"></path></defs><g><g><g><use xlink:href="#e1unWsVQJO" opacity="1" fill="#000000" fill-opacity="1"></use><g><use xlink:href="#e1unWsVQJO" opacity="1" fill-opacity="0" stroke="#000000" stroke-width="1" stroke-opacity="0"></use></g></g><g><use xlink:href="#e15xVjYDgc" opacity="1" fill="#000000" fill-opacity="1"></use><g><use xlink:href="#e15xVjYDgc" opacity="1" fill-opacity="0" stroke="#000000" stroke-width="1" stroke-opacity="0"></use></g></g><g><use xlink:href="#a1BgXNyOrW" opacity="1" fill="#000000" fill-opacity="1"></use><g><use xlink:href="#a1BgXNyOrW" opacity="1" fill-opacity="0" stroke="#000000" stroke-width="1" stroke-opacity="0"></use></g></g><g><use xlink:href="#bfF7CjXDH" opacity="1" fill="#000000" fill-opacity="1"></use><g><use xlink:href="#bfF7CjXDH" opacity="1" fill-opacity="0" stroke="#000000" stroke-width="1" stroke-opacity="0"></use></g></g></g></g></svg>