<svg xmlns="http://www.w3.org/2000/svg" xmlns:xlink="http://www.w3.org/1999/xlink" version="1.1" x="0px" y="0px" viewBox="0 0 100 125" enable-background="new 0 0 100 100" xml:space="preserve"><g><path d="M61.33,32.089c-0.057,0.029-5.771,2.842-11.33,2.842s-11.273-2.813-11.33-2.842c-0.741-0.37-1.642-0.068-2.012,0.671l-6,12   c-0.289,0.578-0.176,1.275,0.281,1.732l4.682,4.68c-2.026,1.496-5.121,4.553-5.121,9.26c0,6.916,6.776,16.5,19.5,16.5   s19.5-9.584,19.5-16.5c0-4.707-3.095-7.764-5.121-9.26l4.682-4.68c0.457-0.457,0.57-1.154,0.281-1.732l-6-12   C62.972,32.021,62.071,31.719,61.33,32.089z M60.938,50.37c-0.34,0.34-0.494,0.823-0.419,1.298   c0.076,0.475,0.376,0.885,0.805,1.104c0.052,0.025,5.177,2.686,5.177,7.66c0,4.707-4.84,13.5-16.5,13.5s-16.5-8.793-16.5-13.5   c0-4.975,5.125-7.635,5.177-7.66c0.429-0.219,0.729-0.629,0.805-1.104c0.075-0.475-0.079-0.958-0.419-1.298l-5.237-5.235   l4.872-9.745c2.195,0.921,6.709,2.542,11.303,2.542s9.107-1.62,11.303-2.542l4.872,9.745L60.938,50.37z"/><path d="M55.329,53.09L50,55.754l-5.329-2.664c-0.742-0.369-1.643-0.07-2.013,0.67c-0.37,0.742-0.07,1.643,0.671,2.014l5.171,2.586   v6.572c0,0.828,0.671,1.5,1.5,1.5s1.5-0.672,1.5-1.5v-6.572l5.171-2.586c0.741-0.371,1.041-1.271,0.671-2.014   C56.972,53.02,56.071,52.721,55.329,53.09z"/><path d="M60.423,43.457c-0.261-0.786-1.112-1.21-1.897-0.949L50,45.35l-8.525-2.842c-0.785-0.262-1.637,0.163-1.897,0.949   c-0.053,0.157-0.07,0.316-0.07,0.473c-0.001,0-0.007,0.001-0.007,0.001c0,0.019,0.006,0.037,0.006,0.056   c0.002,0.054,0.008,0.107,0.016,0.16c0.115,2.38,2.071,4.285,4.479,4.285c1.04,0,2.017-0.352,2.805-0.984l2.721,0.907   c0.154,0.051,0.314,0.077,0.474,0.077s0.32-0.026,0.474-0.077l2.721-0.907c0.788,0.632,1.765,0.984,2.805,0.984   c2.407,0,4.363-1.905,4.479-4.285c0.008-0.053,0.014-0.105,0.016-0.16c0-0.019,0.006-0.037,0.006-0.056   c0,0-0.006-0.001-0.007-0.001C60.493,43.773,60.476,43.614,60.423,43.457z"/><path d="M81.486,72.229c-0.241-1.773-1.234-8.809-2.872-17.191l0.13,0.064c0.492-0.984,4.718-9.72,1.615-13.296   c-1.093-1.26-2.784-1.645-5.021-1.174c-2.516-9.416-5.725-17.893-9.499-20.443c-2.89-1.954-8.811-3.12-15.839-3.12h0h0   c-7.029,0-12.95,1.166-15.839,3.12c-3.774,2.55-6.983,11.027-9.499,20.443c-2.236-0.471-3.928-0.086-5.021,1.174   c-3.103,3.576,1.123,12.312,1.615,13.296l0.13-0.064c-1.638,8.383-2.631,15.418-2.872,17.191c-0.073,0.539,0.151,1.076,0.586,1.402   c0.507,0.381,12.61,9.301,30.9,9.301s30.394-8.92,30.9-9.301C81.335,73.305,81.56,72.768,81.486,72.229z M21.907,43.771   c0.308-0.355,1.02-0.432,2.009-0.24c-0.539,2.171-1.041,4.359-1.505,6.516C21.494,47.274,21.133,44.664,21.907,43.771z M50,79.932   c-14.835,0-25.594-6.373-28.387-8.211c1.829-12.971,7.562-44.543,14.227-49.047c2.341-1.583,7.899-2.605,14.16-2.605h0h0   c6.26,0,11.819,1.022,14.16,2.605c6.665,4.503,12.397,36.076,14.227,49.047C75.594,73.559,64.835,79.932,50,79.932z M77.589,50.047   c-0.464-2.157-0.966-4.345-1.505-6.516c0.989-0.192,1.701-0.116,2.009,0.24C78.867,44.664,78.506,47.274,77.589,50.047z"/></g><text x="0" y="115" fill="#000000" font-size="5px" font-weight="bold" font-family="'Helvetica Neue', Helvetica, Arial-Unicode, Arial, Sans-serif">Created by Yorlmar Campos</text><text x="0" y="120" fill="#000000" font-size="5px" font-weight="bold" font-family="'Helvetica Neue', Helvetica, Arial-Unicode, Arial, Sans-serif">from the Noun Project</text></svg>