<?xml version="1.0" encoding="UTF-8" standalone="no"?>
<!DOCTYPE svg PUBLIC "-//W3C//DTD SVG 1.1//EN" "http://www.w3.org/Graphics/SVG/1.1/DTD/svg11.dtd">
<svg version="1.1" xmlns="http://www.w3.org/2000/svg" xmlns:xlink="http://www.w3.org/1999/xlink" preserveAspectRatio="xMidYMid meet" viewBox="0 0 43 43" width="43" height="43"><defs><path d="M13.99 11.18L14.06 11.19L14.14 11.21L14.22 11.24L14.29 11.27L14.33 11.29L14.42 11.33L14.56 11.4L14.76 11.48L15 11.59L15.28 11.7L15.6 11.83L15.96 11.96L16.36 12.1L16.78 12.25L17.23 12.38L17.71 12.52L18.21 12.65L18.72 12.76L19.25 12.86L19.79 12.95L20.34 13.01L20.89 13.05L21.45 13.07L22 13.05L22.56 13.01L23.11 12.95L23.65 12.86L24.17 12.76L24.69 12.65L25.19 12.52L25.66 12.38L26.12 12.25L26.54 12.1L26.93 11.96L27.3 11.83L27.62 11.7L27.9 11.59L28.14 11.48L28.34 11.4L28.48 11.33L28.57 11.29L28.61 11.27L28.68 11.24L28.76 11.21L28.83 11.19L28.91 11.18L28.99 11.17L29.07 11.17L29.14 11.18L29.22 11.19L29.29 11.21L29.37 11.23L29.44 11.26L29.5 11.3L29.57 11.34L29.63 11.39L29.69 11.44L29.74 11.49L29.79 11.56L29.84 11.62L29.88 11.69L33.67 19.27L33.69 19.33L33.72 19.39L33.74 19.45L33.75 19.51L33.76 19.57L33.77 19.64L33.77 19.7L33.77 19.76L33.76 19.82L33.75 19.88L33.74 19.94L33.72 20L33.7 20.06L33.67 20.11L33.64 20.17L33.61 20.22L33.57 20.27L33.53 20.32L33.49 20.37L30.53 23.33L30.74 23.48L30.96 23.66L31.18 23.85L31.41 24.05L31.64 24.28L31.86 24.52L32.09 24.77L32.31 25.05L32.53 25.34L32.73 25.65L32.92 25.97L33.1 26.31L33.27 26.67L33.41 27.04L33.53 27.44L33.63 27.84L33.71 28.27L33.75 28.71L33.77 29.18L33.73 29.88L33.63 30.6L33.45 31.34L33.2 32.09L32.89 32.83L32.5 33.57L32.05 34.3L31.53 35.01L30.94 35.7L30.29 36.35L29.56 36.96L28.78 37.52L27.92 38.03L27 38.48L26.02 38.87L24.97 39.18L23.86 39.41L22.69 39.55L21.45 39.6L20.21 39.55L19.04 39.41L17.92 39.18L16.88 38.87L15.89 38.48L14.97 38.03L14.12 37.52L13.33 36.96L12.61 36.35L11.96 35.7L11.37 35.01L10.85 34.3L10.39 33.57L10.01 32.83L9.69 32.09L9.45 31.34L9.27 30.6L9.17 29.88L9.13 29.18L9.15 28.71L9.19 28.27L9.27 27.84L9.37 27.44L9.49 27.04L9.63 26.67L9.79 26.31L9.97 25.97L10.17 25.65L10.37 25.34L10.59 25.05L10.81 24.77L11.03 24.52L11.26 24.28L11.49 24.05L11.72 23.85L11.94 23.66L12.16 23.48L12.37 23.33L9.41 20.37L9.36 20.32L9.32 20.27L9.29 20.22L9.25 20.17L9.23 20.11L9.2 20.06L9.18 20L9.16 19.94L9.15 19.88L9.14 19.82L9.13 19.76L9.13 19.7L9.13 19.64L9.14 19.57L9.15 19.51L9.16 19.45L9.18 19.39L9.2 19.33L9.23 19.27L13.02 11.69L13.06 11.62L13.1 11.56L13.15 11.49L13.21 11.44L13.27 11.39L13.33 11.34L13.39 11.3L13.46 11.26L13.53 11.23L13.6 11.21L13.68 11.19L13.75 11.18L13.83 11.17L13.91 11.17L13.99 11.18ZM28 13.59L27.67 13.72L27.3 13.85L26.9 13.99L26.49 14.12L26.05 14.25L25.59 14.38L25.11 14.5L24.62 14.61L24.11 14.71L23.6 14.79L23.07 14.86L22.53 14.92L21.99 14.95L21.45 14.96L20.91 14.95L20.37 14.92L19.83 14.86L19.31 14.79L18.79 14.71L18.28 14.61L17.79 14.5L17.31 14.38L16.85 14.25L16.41 14.12L16 13.99L15.6 13.85L15.23 13.72L14.9 13.59L14.59 13.47L14.31 13.36L11.23 19.51L14.54 22.82L14.58 22.86L14.62 22.9L14.65 22.95L14.68 23L14.71 23.04L14.73 23.09L14.75 23.14L14.77 23.2L14.79 23.25L14.8 23.3L14.81 23.36L14.81 23.41L14.82 23.47L14.82 23.53L14.81 23.58L14.8 23.64L14.79 23.69L14.78 23.75L14.76 23.8L14.74 23.85L14.72 23.91L14.69 23.95L14.67 24L14.63 24.05L14.6 24.09L14.56 24.13L14.52 24.17L14.48 24.21L14.44 24.25L14.39 24.28L14.35 24.31L14.3 24.34L14.25 24.36L14.15 24.42L13.98 24.52L13.77 24.66L13.52 24.83L13.25 25.05L12.95 25.3L12.65 25.58L12.35 25.91L12.05 26.27L11.78 26.66L11.53 27.1L11.32 27.56L11.17 28.07L11.06 28.6L11.03 29.18L11.06 29.76L11.17 30.4L11.36 31.07L11.62 31.76L11.96 32.47L12.38 33.18L12.89 33.88L13.48 34.55L14.15 35.2L14.91 35.79L15.77 36.32L16.71 36.79L17.75 37.17L18.89 37.46L20.12 37.64L21.45 37.7L22.78 37.64L24.01 37.46L25.15 37.17L26.19 36.79L27.13 36.32L27.98 35.79L28.75 35.2L29.42 34.55L30.01 33.88L30.52 33.18L30.94 32.47L31.28 31.76L31.54 31.07L31.73 30.4L31.84 29.76L31.87 29.18L31.84 28.6L31.73 28.07L31.57 27.56L31.37 27.1L31.12 26.66L30.85 26.27L30.55 25.91L30.25 25.58L29.95 25.3L29.65 25.05L29.38 24.83L29.13 24.66L28.92 24.52L28.75 24.42L28.64 24.36L28.6 24.34L28.55 24.31L28.5 24.28L28.46 24.25L28.42 24.21L28.37 24.17L28.34 24.13L28.3 24.09L28.26 24.05L28.23 24L28.2 23.95L28.18 23.91L28.16 23.85L28.14 23.8L28.12 23.75L28.1 23.69L28.09 23.64L28.09 23.6L28.09 23.56L28.09 23.52L28.09 23.48L28.1 23.43L28.11 23.38L28.12 23.33L28.14 23.28L28.15 23.23L28.18 23.18L28.2 23.12L28.23 23.07L28.25 23.01L28.29 22.95L28.32 22.88L28.36 22.82L31.67 19.51L28.59 13.36L28.31 13.47L28 13.59Z" id="b81kFBbEF7"></path><path d="M21.45 26.22C19.43 25.21 18.31 24.65 18.08 24.54C17.61 24.3 17.04 24.49 16.81 24.96C16.58 25.43 16.77 26 17.23 26.23C17.45 26.34 18.54 26.89 20.5 27.87C20.5 30.36 20.5 31.74 20.5 32.02C20.5 32.54 20.93 32.97 21.45 32.97C21.97 32.97 22.4 32.54 22.4 32.02C22.4 31.74 22.4 30.36 22.4 27.87C24.36 26.89 25.45 26.34 25.66 26.23C26.13 26 26.32 25.43 26.09 24.96C25.85 24.49 25.28 24.3 24.82 24.54C24.37 24.76 23.24 25.32 21.45 26.22Z" id="bUZL10wya"></path><path d="M26.84 17.85C26.48 17.97 24.68 18.57 21.45 19.65C18.22 18.57 16.42 17.97 16.06 17.85C15.57 17.69 15.03 17.96 14.86 18.45C14.83 18.55 14.82 18.65 14.82 18.75C14.82 18.75 14.82 18.75 14.82 18.75C14.82 18.76 14.82 18.77 14.82 18.79C14.82 18.82 14.83 18.85 14.83 18.89C14.9 20.39 16.14 21.59 17.66 21.59C18.32 21.59 18.93 21.37 19.43 20.97C19.6 21.03 20.98 21.49 21.15 21.55C21.25 21.58 21.35 21.59 21.45 21.59C21.55 21.59 21.65 21.58 21.75 21.55C21.92 21.49 23.3 21.03 23.47 20.97C23.97 21.37 24.58 21.59 25.24 21.59C26.76 21.59 28 20.39 28.07 18.89C28.08 18.85 28.08 18.82 28.08 18.79C28.08 18.77 28.08 18.76 28.08 18.75C28.08 18.75 28.08 18.75 28.08 18.75C28.08 18.65 28.07 18.55 28.03 18.45C27.87 17.96 27.33 17.69 26.84 17.85Z" id="b2n125wowa"></path><path d="M22.42 1.79L22.9 1.81L23.37 1.83L23.84 1.86L24.29 1.89L24.74 1.93L25.18 1.97L25.61 2.02L26.03 2.07L26.44 2.13L26.85 2.2L27.24 2.27L27.62 2.34L27.99 2.42L28.35 2.51L28.7 2.6L29.04 2.69L29.36 2.79L29.67 2.9L29.97 3.01L30.25 3.12L30.52 3.24L30.78 3.36L31.02 3.49L31.24 3.62L31.45 3.75L31.72 3.95L31.98 4.17L32.24 4.42L32.49 4.7L32.74 5.01L32.99 5.35L33.24 5.71L33.48 6.09L33.72 6.49L33.95 6.92L34.19 7.37L34.42 7.84L34.64 8.33L34.86 8.84L35.08 9.36L35.3 9.91L35.51 10.46L35.72 11.03L35.93 11.62L36.13 12.21L36.33 12.82L36.53 13.44L36.72 14.07L36.91 14.71L37.1 15.36L37.28 16.01L37.46 16.67L37.61 16.64L37.76 16.61L37.91 16.59L38.06 16.57L38.21 16.56L38.35 16.55L38.48 16.54L38.62 16.55L38.75 16.55L38.88 16.56L39.01 16.57L39.13 16.59L39.25 16.61L39.37 16.64L39.49 16.67L39.6 16.71L39.71 16.75L39.81 16.8L39.92 16.85L40.02 16.9L40.11 16.96L40.21 17.02L40.3 17.09L40.38 17.16L40.47 17.24L40.55 17.32L40.63 17.41L40.83 17.67L40.99 17.96L41.12 18.27L41.22 18.6L41.28 18.95L41.33 19.31L41.34 19.68L41.33 20.06L41.3 20.45L41.26 20.85L41.19 21.24L41.11 21.64L41.02 22.03L40.92 22.41L40.81 22.79L40.69 23.16L40.57 23.52L40.45 23.86L40.32 24.18L40.2 24.48L40.09 24.76L39.98 25.01L39.88 25.24L39.79 25.43L39.71 25.59L39.65 25.72L39.61 25.81L39.53 25.77L39.64 26.35L39.75 26.93L39.86 27.5L39.96 28.06L40.06 28.61L40.15 29.14L40.25 29.67L40.34 30.19L40.42 30.69L40.5 31.18L40.58 31.65L40.66 32.11L40.73 32.55L40.8 32.97L40.86 33.38L40.92 33.77L40.98 34.14L41.03 34.49L41.08 34.82L41.13 35.13L41.17 35.42L41.21 35.68L41.24 35.92L41.27 36.13L41.3 36.33L41.32 36.49L41.34 36.63L41.34 36.67L41.35 36.7L41.35 36.74L41.35 36.78L41.35 36.82L41.34 36.85L41.34 36.89L41.33 36.93L41.33 36.96L41.32 37L41.31 37.03L41.3 37.07L41.28 37.1L41.27 37.14L41.25 37.17L41.24 37.2L41.22 37.24L41.2 37.27L41.18 37.3L41.16 37.33L41.13 37.36L41.11 37.39L41.08 37.41L41.06 37.44L41.03 37.47L41 37.49L40.97 37.51L40.9 37.56L40.78 37.65L40.6 37.78L40.36 37.94L40.06 38.13L39.71 38.35L39.3 38.6L38.84 38.86L38.33 39.14L37.77 39.44L37.16 39.75L36.5 40.06L35.79 40.38L35.04 40.7L34.24 41.02L33.39 41.33L32.51 41.63L31.57 41.92L30.6 42.19L29.59 42.45L28.54 42.68L27.44 42.88L26.32 43.05L25.15 43.2L23.95 43.3L22.72 43.37L21.45 43.39L20.18 43.37L18.95 43.3L17.75 43.2L16.58 43.05L15.45 42.88L14.36 42.68L13.31 42.45L12.3 42.19L11.32 41.92L10.39 41.63L9.5 41.33L8.66 41.02L7.86 40.7L7.1 40.38L6.4 40.06L5.74 39.75L5.13 39.44L4.56 39.14L4.05 38.86L3.6 38.6L3.19 38.35L2.84 38.13L2.54 37.94L2.3 37.78L2.12 37.65L1.99 37.56L1.93 37.51L1.9 37.49L1.87 37.47L1.84 37.44L1.82 37.41L1.79 37.39L1.77 37.36L1.74 37.33L1.72 37.3L1.7 37.27L1.68 37.24L1.66 37.2L1.65 37.17L1.63 37.14L1.62 37.1L1.6 37.07L1.59 37.03L1.58 37L1.57 36.96L1.57 36.93L1.56 36.89L1.55 36.85L1.55 36.82L1.55 36.78L1.55 36.74L1.55 36.7L1.55 36.67L1.56 36.63L1.58 36.49L1.6 36.33L1.63 36.13L1.66 35.92L1.69 35.68L1.73 35.42L1.77 35.13L1.82 34.82L1.87 34.49L1.92 34.14L1.98 33.77L2.04 33.38L2.1 32.97L2.17 32.55L2.24 32.11L2.32 31.65L2.39 31.18L2.48 30.69L2.56 30.19L2.65 29.67L2.74 29.15L2.84 28.61L2.94 28.06L3.04 27.5L3.15 26.93L3.26 26.35L3.37 25.77L3.29 25.81L3.25 25.72L3.19 25.59L3.11 25.43L3.02 25.24L2.92 25.01L2.81 24.76L2.69 24.48L2.57 24.18L2.45 23.86L2.33 23.52L2.21 23.16L2.09 22.79L1.98 22.41L1.88 22.03L1.79 21.64L1.71 21.24L1.64 20.85L1.59 20.45L1.57 20.06L1.56 19.68L1.57 19.31L1.61 18.95L1.68 18.6L1.78 18.27L1.91 17.96L2.07 17.67L2.27 17.41L2.35 17.32L2.43 17.24L2.51 17.16L2.6 17.09L2.69 17.02L2.79 16.96L2.88 16.9L2.98 16.85L3.09 16.8L3.19 16.75L3.3 16.71L3.41 16.67L3.53 16.64L3.64 16.61L3.77 16.59L3.89 16.57L4.02 16.56L4.15 16.55L4.28 16.55L4.41 16.54L4.55 16.55L4.69 16.56L4.84 16.57L4.98 16.59L5.13 16.61L5.29 16.64L5.44 16.67L5.62 16.01L5.8 15.36L5.99 14.71L6.18 14.07L6.37 13.44L6.57 12.82L6.77 12.21L6.97 11.62L7.17 11.03L7.38 10.46L7.6 9.91L7.81 9.36L8.03 8.84L8.26 8.33L8.48 7.84L8.71 7.37L8.94 6.92L9.18 6.49L9.42 6.09L9.66 5.71L9.91 5.35L10.16 5.01L10.41 4.7L10.66 4.42L10.92 4.17L11.18 3.95L11.44 3.75L11.65 3.62L11.88 3.49L12.12 3.36L12.38 3.24L12.65 3.12L12.93 3.01L13.23 2.9L13.54 2.79L13.86 2.69L14.2 2.6L14.55 2.51L14.9 2.42L15.28 2.34L15.66 2.27L16.05 2.2L16.45 2.13L16.86 2.07L17.29 2.02L17.72 1.97L18.16 1.93L18.61 1.89L19.06 1.86L19.53 1.83L20 1.81L20.47 1.79L20.96 1.78L21.45 1.78L21.94 1.78L22.42 1.79ZM20.47 3.69L19.99 3.71L19.52 3.73L19.05 3.76L18.59 3.79L18.14 3.83L17.7 3.88L17.27 3.93L16.85 3.99L16.44 4.06L16.05 4.12L15.66 4.2L15.3 4.28L14.94 4.36L14.6 4.45L14.28 4.54L13.97 4.64L13.68 4.75L13.41 4.85L13.15 4.96L12.91 5.08L12.7 5.2L12.5 5.32L11.98 5.76L11.46 6.37L10.96 7.13L10.46 8.04L9.97 9.07L9.49 10.21L9.02 11.46L8.56 12.8L8.11 14.22L7.68 15.7L7.27 17.23L6.86 18.81L6.48 20.41L6.11 22.03L5.76 23.65L5.42 25.26L5.11 26.85L4.82 28.41L4.54 29.92L4.29 31.36L4.06 32.74L3.86 34.03L3.67 35.22L3.52 36.31L3.76 36.47L4.06 36.65L4.41 36.86L4.81 37.09L5.25 37.34L5.74 37.61L6.28 37.88L6.87 38.17L7.49 38.46L8.16 38.75L8.88 39.05L9.63 39.34L10.42 39.62L11.25 39.9L12.12 40.16L13.03 40.41L13.97 40.64L14.94 40.85L15.95 41.03L16.99 41.19L18.06 41.32L19.16 41.41L20.29 41.47L21.45 41.49L22.61 41.47L23.74 41.41L24.84 41.32L25.91 41.19L26.95 41.03L27.96 40.85L28.93 40.64L29.87 40.41L30.78 40.16L31.64 39.9L32.48 39.62L33.27 39.34L34.02 39.05L34.73 38.75L35.4 38.46L36.03 38.17L36.61 37.88L37.15 37.61L37.65 37.34L38.09 37.09L38.49 36.86L38.84 36.65L39.14 36.47L39.38 36.31L39.22 35.22L39.04 34.03L38.84 32.74L38.61 31.36L38.36 29.92L38.08 28.41L37.79 26.85L37.47 25.26L37.14 23.65L36.79 22.03L36.42 20.41L36.03 18.81L35.63 17.23L35.21 15.7L34.78 14.22L34.34 12.8L33.88 11.46L33.41 10.21L32.93 9.07L32.44 8.04L31.94 7.13L31.43 6.37L30.92 5.76L30.39 5.32L30.2 5.2L29.98 5.08L29.75 4.96L29.49 4.85L29.22 4.75L28.93 4.64L28.62 4.54L28.3 4.45L27.96 4.36L27.6 4.28L27.23 4.2L26.85 4.12L26.45 4.06L26.05 3.99L25.63 3.93L25.2 3.88L24.76 3.83L24.31 3.79L23.85 3.76L23.38 3.73L22.91 3.71L22.43 3.69L21.94 3.68L21.45 3.68L20.96 3.68L20.47 3.69ZM38.18 19.53L38.42 20.56L38.65 21.59L38.88 22.61L39.24 21.34L39.44 20.19L39.43 19.26L39.2 18.65L39 18.51L38.72 18.44L38.36 18.44L37.93 18.5L38.18 19.53ZM3.89 18.51L3.7 18.65L3.46 19.26L3.46 20.19L3.66 21.34L4.02 22.61L4.24 21.59L4.48 20.56L4.72 19.53L4.97 18.5L4.54 18.44L4.17 18.44L3.89 18.51Z" id="a1jGUb8ebF"></path></defs><g><g><g><use xlink:href="#b81kFBbEF7" opacity="0.14" fill="#000000" fill-opacity="1"></use><g><use xlink:href="#b81kFBbEF7" opacity="0.14" fill-opacity="0" stroke="#000000" stroke-width="1" stroke-opacity="0"></use></g></g><g><use xlink:href="#bUZL10wya" opacity="0.14" fill="#000000" fill-opacity="1"></use><g><use xlink:href="#bUZL10wya" opacity="0.14" fill-opacity="0" stroke="#000000" stroke-width="1" stroke-opacity="0"></use></g></g><g><use xlink:href="#b2n125wowa" opacity="0.14" fill="#000000" fill-opacity="1"></use><g><use xlink:href="#b2n125wowa" opacity="0.14" fill-opacity="0" stroke="#000000" stroke-width="1" stroke-opacity="0"></use></g></g><g><use xlink:href="#a1jGUb8ebF" opacity="0.14" fill="#000000" fill-opacity="1"></use><g><use xlink:href="#a1jGUb8ebF" opacity="0.14" fill-opacity="0" stroke="#000000" stroke-width="1" stroke-opacity="0"></use></g></g></g></g></svg>